<?xml version="1.0" encoding="UTF-8"?>
<svg xmlns="http://www.w3.org/2000/svg" version="1.1" viewBox="0 0 2396.18 1496.34">
  <defs>
    <style>
      .cls-1 {
        fill: #405084;
      }

      .cls-2 {
        fill: #e81c5e;
      }
    </style>
  </defs>
  <!-- Generator: Adobe Illustrator 28.7.3, SVG Export Plug-In . SVG Version: 1.2.0 Build 164)  -->
  <g>
    <g id="Layer_1">
      <path class="cls-2" d="M1563.63,219.32c71.46,0,140.7,13.96,205.81,41.5,31.3,13.24,61.51,29.64,89.77,48.73,28.04,18.94,54.4,40.7,78.37,64.67,23.97,23.97,45.73,50.34,64.67,78.37,19.1,28.27,35.49,58.47,48.73,89.77,27.54,65.1,41.5,134.35,41.5,205.81s-13.96,140.7-41.5,205.81c-13.24,31.3-29.64,61.51-48.73,89.77-18.94,28.04-40.7,54.4-64.67,78.37-23.97,23.97-50.34,45.73-78.37,64.67-28.27,19.1-58.47,35.49-89.77,48.73-65.1,27.54-134.35,41.5-205.81,41.5s-140.7-13.96-205.81-41.5c-31.3-13.24-61.51-29.64-89.77-48.73-28.04-18.94-54.4-40.7-78.37-64.67-23.97-23.97-45.73-50.34-64.67-78.37-19.1-28.27-35.49-58.47-48.73-89.77-27.54-65.1-41.5-134.35-41.5-205.81s13.96-140.7,41.5-205.81c13.24-31.3,29.64-61.51,48.73-89.77,18.94-28.04,40.7-54.4,64.67-78.37,23.97-23.97,50.34-45.73,78.37-64.67,28.27-19.1,58.47-35.49,89.77-48.73,65.1-27.54,134.35-41.5,205.81-41.5M1563.63,69.32c-374.92,0-678.85,303.93-678.85,678.85s303.93,678.85,678.85,678.85,678.85-303.93,678.85-678.85S1938.55,69.32,1563.63,69.32h0Z"/>
      <path class="cls-1" d="M884.78,219.32c71.46,0,140.7,13.96,205.81,41.5,31.3,13.24,61.51,29.64,89.77,48.73,28.04,18.94,54.4,40.7,78.37,64.67,23.97,23.97,45.73,50.34,64.67,78.37,19.1,28.27,35.49,58.47,48.73,89.77,27.54,65.1,41.5,134.35,41.5,205.81s-13.96,140.7-41.5,205.81c-13.24,31.3-29.64,61.51-48.73,89.77-18.94,28.04-40.7,54.4-64.67,78.37-23.97,23.97-50.34,45.73-78.37,64.67-28.27,19.1-58.47,35.49-89.77,48.73-65.1,27.54-134.35,41.5-205.81,41.5s-140.7-13.96-205.81-41.5c-31.3-13.24-61.51-29.64-89.77-48.73-28.04-18.94-54.4-40.7-78.37-64.67-23.97-23.97-45.73-50.34-64.67-78.37-19.1-28.27-35.49-58.47-48.73-89.77-27.54-65.1-41.5-134.35-41.5-205.81s13.96-140.7,41.5-205.81c13.24-31.3,29.64-61.51,48.73-89.77,18.94-28.04,40.7-54.4,64.67-78.37,23.97-23.97,50.34-45.73,78.37-64.67,28.27-19.1,58.47-35.49,89.77-48.73,65.1-27.54,134.35-41.5,205.81-41.5h0ZM884.78,69.32c-374.92,0-678.85,303.93-678.85,678.85s303.93,678.85,678.85,678.85,678.85-303.93,678.85-678.85S1259.7,69.32,884.78,69.32h0Z"/>
      <path class="cls-2" d="M963.61,430.39v15.94h165.7c17.91-25.7,38.19-49.93,60.37-72.11,23.97-23.97,50.33-45.72,78.37-64.67,28.27-19.09,58.47-35.49,89.77-48.73,65.11-27.53,134.35-41.5,205.81-41.5V69.32c-260.1,0-486.04,146.29-600.02,361.07Z"/>
      <path class="cls-2" d="M1563.63,69.32v150c-71.46,0-140.7,13.97-205.81,41.5-31.3,13.24-61.5,29.64-89.77,48.73-28.04,18.95-54.4,40.7-78.37,64.67-22.18,22.18-42.46,46.41-60.37,72.11h-165.7v-15.94c113.98-214.78,339.92-361.07,600.02-361.07Z"/>
    </g>
  </g>
</svg>