<?xml version="1.0" encoding="UTF-8"?>
<svg xmlns="http://www.w3.org/2000/svg" version="1.1" viewBox="0 0 2396.18 1496.34">
  <defs>
    <style>
      .cls-1 {
        fill: #251725;
      }

      .cls-2 {
        fill: #405084;
      }

      .cls-3 {
        fill: #e81c5e;
      }
    </style>
  </defs>
  <!-- Generator: Adobe Illustrator 28.7.3, SVG Export Plug-In . SVG Version: 1.2.0 Build 164)  -->
  <g>
    <g id="Layer_1">
      <path class="cls-2" d="M1197.62,1243.07c-121.39,114.02-284.75,183.85-464.5,183.85-374.91,0-678.85-303.93-678.85-678.85S358.2,69.23,733.11,69.23c179.75,0,343.11,69.84,464.5,183.85-131.96,123.77-214.42,299.75-214.42,495s82.46,371.23,214.42,495Z"/>
      <path class="cls-1" d="M1411.96,748.08c0,195.16-82.38,371.14-214.34,495-131.96-123.77-214.42-299.75-214.42-495s82.46-371.23,214.42-495c131.97,123.85,214.34,299.83,214.34,495Z"/>
      <path class="cls-3" d="M2340.97,748.08c0,374.92-303.93,678.85-678.84,678.85-179.67,0-343.11-69.84-464.51-183.85,131.97-123.85,214.34-299.83,214.34-495s-82.38-371.14-214.34-495c121.39-114.02,284.83-183.85,464.51-183.85,374.91,0,678.84,303.93,678.84,678.85Z"/>
    </g>
  </g>
</svg>